<mxfile host="app.diagrams.net" modified="2023-09-29T15:31:33.107Z" agent="Mozilla/5.0 (Windows NT 10.0; Win64; x64; rv:109.0) Gecko/20100101 Firefox/117.0" etag="ffoAXF-Wh5sp4MZ-gvEd" version="21.8.2" type="github">
  <diagram id="R2lEEEUBdFMjLlhIrx00" name="Page-1">
    <mxGraphModel dx="954" dy="557" grid="1" gridSize="10" guides="1" tooltips="1" connect="1" arrows="1" fold="1" page="1" pageScale="1" pageWidth="850" pageHeight="1100" math="0" shadow="0" extFonts="Permanent Marker^https://fonts.googleapis.com/css?family=Permanent+Marker">
      <root>
        <mxCell id="0" />
        <mxCell id="1" parent="0" />
        <mxCell id="Q9FifGHWBsW8M5NocKsP-16" value="" style="rounded=0;whiteSpace=wrap;html=1;" parent="1" vertex="1">
          <mxGeometry x="240" y="190" width="340" height="550" as="geometry" />
        </mxCell>
        <mxCell id="Q9FifGHWBsW8M5NocKsP-2" value="Assemblies" style="swimlane;childLayout=stackLayout;horizontal=1;startSize=50;horizontalStack=0;rounded=1;fontSize=14;fontStyle=0;strokeWidth=2;resizeParent=0;resizeLast=1;shadow=0;dashed=0;align=center;arcSize=4;whiteSpace=wrap;html=1;" parent="1" vertex="1">
          <mxGeometry x="345" y="250" width="160" height="120" as="geometry" />
        </mxCell>
        <mxCell id="Q9FifGHWBsW8M5NocKsP-3" value="&lt;div&gt;&lt;u&gt;ass_id&lt;/u&gt;&lt;/div&gt;&lt;div&gt;date&lt;u&gt;&lt;br&gt;&lt;/u&gt;&lt;/div&gt;&lt;div&gt;ass_details&lt;br&gt;&lt;/div&gt;" style="align=left;strokeColor=none;fillColor=none;spacingLeft=4;fontSize=12;verticalAlign=top;resizable=0;rotatable=0;part=1;html=1;" parent="Q9FifGHWBsW8M5NocKsP-2" vertex="1">
          <mxGeometry y="50" width="160" height="70" as="geometry" />
        </mxCell>
        <mxCell id="Q9FifGHWBsW8M5NocKsP-5" value="Create" style="shape=rhombus;perimeter=rhombusPerimeter;whiteSpace=wrap;html=1;align=center;" parent="1" vertex="1">
          <mxGeometry x="360" y="390" width="120" height="60" as="geometry" />
        </mxCell>
        <mxCell id="Q9FifGHWBsW8M5NocKsP-6" value="Process" style="swimlane;childLayout=stackLayout;horizontal=1;startSize=50;horizontalStack=0;rounded=1;fontSize=14;fontStyle=0;strokeWidth=2;resizeParent=0;resizeLast=1;shadow=0;dashed=0;align=center;arcSize=4;whiteSpace=wrap;html=1;" parent="1" vertex="1">
          <mxGeometry x="340" y="470" width="160" height="120" as="geometry" />
        </mxCell>
        <mxCell id="Q9FifGHWBsW8M5NocKsP-7" value="&lt;div&gt;&lt;u&gt;process_id&lt;/u&gt;&lt;/div&gt;&lt;div&gt;process_data&lt;br&gt;&lt;/div&gt;" style="align=left;strokeColor=none;fillColor=none;spacingLeft=4;fontSize=12;verticalAlign=top;resizable=0;rotatable=0;part=1;html=1;" parent="Q9FifGHWBsW8M5NocKsP-6" vertex="1">
          <mxGeometry y="50" width="160" height="70" as="geometry" />
        </mxCell>
        <mxCell id="Q9FifGHWBsW8M5NocKsP-11" value="" style="shape=link;html=1;rounded=0;exitX=0.5;exitY=1;exitDx=0;exitDy=0;entryX=0.5;entryY=0;entryDx=0;entryDy=0;" parent="1" source="Q9FifGHWBsW8M5NocKsP-5" target="Q9FifGHWBsW8M5NocKsP-6" edge="1">
          <mxGeometry relative="1" as="geometry">
            <mxPoint x="340" y="400" as="sourcePoint" />
            <mxPoint x="500" y="400" as="targetPoint" />
          </mxGeometry>
        </mxCell>
        <mxCell id="Q9FifGHWBsW8M5NocKsP-12" value="N" style="resizable=0;html=1;whiteSpace=wrap;align=right;verticalAlign=bottom;" parent="Q9FifGHWBsW8M5NocKsP-11" connectable="0" vertex="1">
          <mxGeometry x="1" relative="1" as="geometry" />
        </mxCell>
        <mxCell id="Q9FifGHWBsW8M5NocKsP-13" value="" style="shape=link;html=1;rounded=0;exitX=0.5;exitY=1;exitDx=0;exitDy=0;" parent="1" source="Q9FifGHWBsW8M5NocKsP-2" target="Q9FifGHWBsW8M5NocKsP-5" edge="1">
          <mxGeometry relative="1" as="geometry">
            <mxPoint x="340" y="400" as="sourcePoint" />
            <mxPoint x="500" y="400" as="targetPoint" />
          </mxGeometry>
        </mxCell>
        <mxCell id="Q9FifGHWBsW8M5NocKsP-14" value="1" style="resizable=0;html=1;whiteSpace=wrap;align=right;verticalAlign=bottom;" parent="Q9FifGHWBsW8M5NocKsP-13" connectable="0" vertex="1">
          <mxGeometry x="1" relative="1" as="geometry" />
        </mxCell>
        <mxCell id="Q9FifGHWBsW8M5NocKsP-18" value="Fit" style="swimlane;childLayout=stackLayout;horizontal=1;startSize=50;horizontalStack=0;rounded=1;fontSize=14;fontStyle=0;strokeWidth=2;resizeParent=0;resizeLast=1;shadow=0;dashed=0;align=center;arcSize=4;whiteSpace=wrap;html=1;" parent="1" vertex="1">
          <mxGeometry x="250" y="630" width="90" height="100" as="geometry" />
        </mxCell>
        <mxCell id="Q9FifGHWBsW8M5NocKsP-19" value="&lt;u&gt;fit_type&lt;/u&gt;" style="align=left;strokeColor=none;fillColor=none;spacingLeft=4;fontSize=12;verticalAlign=top;resizable=0;rotatable=0;part=1;html=1;" parent="Q9FifGHWBsW8M5NocKsP-18" vertex="1">
          <mxGeometry y="50" width="90" height="50" as="geometry" />
        </mxCell>
        <mxCell id="Q9FifGHWBsW8M5NocKsP-20" value="Paint" style="swimlane;childLayout=stackLayout;horizontal=1;startSize=50;horizontalStack=0;rounded=1;fontSize=14;fontStyle=0;strokeWidth=2;resizeParent=0;resizeLast=1;shadow=0;dashed=0;align=center;arcSize=4;whiteSpace=wrap;html=1;" parent="1" vertex="1">
          <mxGeometry x="365" y="630" width="90" height="100" as="geometry" />
        </mxCell>
        <mxCell id="Q9FifGHWBsW8M5NocKsP-21" value="&lt;div&gt;&lt;u&gt;paint_type&lt;/u&gt;&lt;/div&gt;&lt;div&gt;painting_method&lt;br&gt;&lt;/div&gt;" style="align=left;strokeColor=none;fillColor=none;spacingLeft=4;fontSize=12;verticalAlign=top;resizable=0;rotatable=0;part=1;html=1;" parent="Q9FifGHWBsW8M5NocKsP-20" vertex="1">
          <mxGeometry y="50" width="90" height="50" as="geometry" />
        </mxCell>
        <mxCell id="Q9FifGHWBsW8M5NocKsP-22" value="Cut" style="swimlane;childLayout=stackLayout;horizontal=1;startSize=50;horizontalStack=0;rounded=1;fontSize=14;fontStyle=0;strokeWidth=2;resizeParent=0;resizeLast=1;shadow=0;dashed=0;align=center;arcSize=4;whiteSpace=wrap;html=1;" parent="1" vertex="1">
          <mxGeometry x="480" y="630" width="90" height="100" as="geometry" />
        </mxCell>
        <mxCell id="Q9FifGHWBsW8M5NocKsP-23" value="&lt;div&gt;&lt;u&gt;cutting_type&lt;/u&gt;&lt;/div&gt;&lt;div&gt;machine_type&lt;br&gt;&lt;/div&gt;" style="align=left;strokeColor=none;fillColor=none;spacingLeft=4;fontSize=12;verticalAlign=top;resizable=0;rotatable=0;part=1;html=1;" parent="Q9FifGHWBsW8M5NocKsP-22" vertex="1">
          <mxGeometry y="50" width="90" height="50" as="geometry" />
        </mxCell>
        <mxCell id="Q9FifGHWBsW8M5NocKsP-25" value="&lt;div&gt;total&lt;/div&gt;" style="edgeStyle=segmentEdgeStyle;endArrow=classic;html=1;curved=0;rounded=0;endSize=8;startSize=8;exitX=0.5;exitY=0;exitDx=0;exitDy=0;entryX=0.5;entryY=1;entryDx=0;entryDy=0;" parent="1" source="Q9FifGHWBsW8M5NocKsP-18" target="Q9FifGHWBsW8M5NocKsP-7" edge="1">
          <mxGeometry width="50" height="50" relative="1" as="geometry">
            <mxPoint x="400" y="420" as="sourcePoint" />
            <mxPoint x="450" y="370" as="targetPoint" />
            <Array as="points">
              <mxPoint x="295" y="610" />
              <mxPoint x="420" y="610" />
            </Array>
          </mxGeometry>
        </mxCell>
        <mxCell id="Q9FifGHWBsW8M5NocKsP-26" value="" style="edgeStyle=segmentEdgeStyle;endArrow=classic;html=1;curved=0;rounded=0;endSize=8;startSize=8;exitX=0.622;exitY=0.01;exitDx=0;exitDy=0;exitPerimeter=0;entryX=0.5;entryY=1;entryDx=0;entryDy=0;" parent="1" source="Q9FifGHWBsW8M5NocKsP-20" target="Q9FifGHWBsW8M5NocKsP-7" edge="1">
          <mxGeometry width="50" height="50" relative="1" as="geometry">
            <mxPoint x="400" y="420" as="sourcePoint" />
            <mxPoint x="420" y="600" as="targetPoint" />
            <Array as="points">
              <mxPoint x="421" y="616" />
              <mxPoint x="420" y="616" />
            </Array>
          </mxGeometry>
        </mxCell>
        <mxCell id="Q9FifGHWBsW8M5NocKsP-27" value="" style="edgeStyle=segmentEdgeStyle;endArrow=classic;html=1;curved=0;rounded=0;endSize=8;startSize=8;entryX=0.5;entryY=1;entryDx=0;entryDy=0;exitX=0.5;exitY=0;exitDx=0;exitDy=0;" parent="1" source="Q9FifGHWBsW8M5NocKsP-22" target="Q9FifGHWBsW8M5NocKsP-7" edge="1">
          <mxGeometry width="50" height="50" relative="1" as="geometry">
            <mxPoint x="400" y="420" as="sourcePoint" />
            <mxPoint x="450" y="370" as="targetPoint" />
            <Array as="points">
              <mxPoint x="525" y="610" />
              <mxPoint x="420" y="610" />
            </Array>
          </mxGeometry>
        </mxCell>
        <mxCell id="Q9FifGHWBsW8M5NocKsP-28" value="Department" style="swimlane;childLayout=stackLayout;horizontal=1;startSize=50;horizontalStack=0;rounded=1;fontSize=14;fontStyle=0;strokeWidth=2;resizeParent=0;resizeLast=1;shadow=0;dashed=0;align=center;arcSize=4;whiteSpace=wrap;html=1;" parent="1" vertex="1">
          <mxGeometry x="20" y="470" width="110" height="120" as="geometry" />
        </mxCell>
        <mxCell id="Q9FifGHWBsW8M5NocKsP-29" value="&lt;div&gt;&lt;u&gt;dept_num&lt;/u&gt;&lt;/div&gt;&lt;div&gt;dept_data&lt;br&gt;&lt;/div&gt;" style="align=left;strokeColor=none;fillColor=none;spacingLeft=4;fontSize=12;verticalAlign=top;resizable=0;rotatable=0;part=1;html=1;" parent="Q9FifGHWBsW8M5NocKsP-28" vertex="1">
          <mxGeometry y="50" width="110" height="70" as="geometry" />
        </mxCell>
        <mxCell id="Q9FifGHWBsW8M5NocKsP-31" value="Supervises" style="shape=rhombus;perimeter=rhombusPerimeter;whiteSpace=wrap;html=1;align=center;" parent="1" vertex="1">
          <mxGeometry x="160" y="500" width="120" height="60" as="geometry" />
        </mxCell>
        <mxCell id="Q9FifGHWBsW8M5NocKsP-32" value="" style="shape=link;html=1;rounded=0;exitX=0.982;exitY=0.129;exitDx=0;exitDy=0;exitPerimeter=0;entryX=0;entryY=0.5;entryDx=0;entryDy=0;" parent="1" source="Q9FifGHWBsW8M5NocKsP-29" target="Q9FifGHWBsW8M5NocKsP-31" edge="1">
          <mxGeometry relative="1" as="geometry">
            <mxPoint x="340" y="430" as="sourcePoint" />
            <mxPoint x="500" y="430" as="targetPoint" />
          </mxGeometry>
        </mxCell>
        <mxCell id="Q9FifGHWBsW8M5NocKsP-33" value="1" style="resizable=0;html=1;whiteSpace=wrap;align=right;verticalAlign=bottom;" parent="Q9FifGHWBsW8M5NocKsP-32" connectable="0" vertex="1">
          <mxGeometry x="1" relative="1" as="geometry" />
        </mxCell>
        <mxCell id="Q9FifGHWBsW8M5NocKsP-34" value="" style="shape=link;html=1;rounded=0;entryX=1;entryY=0.5;entryDx=0;entryDy=0;exitX=0;exitY=0;exitDx=0;exitDy=0;" parent="1" source="Q9FifGHWBsW8M5NocKsP-7" target="Q9FifGHWBsW8M5NocKsP-31" edge="1">
          <mxGeometry relative="1" as="geometry">
            <mxPoint x="340" y="430" as="sourcePoint" />
            <mxPoint x="500" y="430" as="targetPoint" />
          </mxGeometry>
        </mxCell>
        <mxCell id="Q9FifGHWBsW8M5NocKsP-35" value="N" style="resizable=0;html=1;whiteSpace=wrap;align=right;verticalAlign=bottom;" parent="Q9FifGHWBsW8M5NocKsP-34" connectable="0" vertex="1">
          <mxGeometry x="1" relative="1" as="geometry" />
        </mxCell>
        <mxCell id="Q9FifGHWBsW8M5NocKsP-36" value="Customer" style="swimlane;childLayout=stackLayout;horizontal=1;startSize=50;horizontalStack=0;rounded=1;fontSize=14;fontStyle=0;strokeWidth=2;resizeParent=0;resizeLast=1;shadow=0;dashed=0;align=center;arcSize=4;whiteSpace=wrap;html=1;" parent="1" vertex="1">
          <mxGeometry x="20" y="240" width="110" height="120" as="geometry" />
        </mxCell>
        <mxCell id="Q9FifGHWBsW8M5NocKsP-37" value="&lt;div&gt;&lt;u&gt;name&lt;/u&gt;&lt;/div&gt;&lt;div&gt;address&lt;/div&gt;&lt;div&gt;categoriy&lt;br&gt;&lt;/div&gt;" style="align=left;strokeColor=none;fillColor=none;spacingLeft=4;fontSize=12;verticalAlign=top;resizable=0;rotatable=0;part=1;html=1;" parent="Q9FifGHWBsW8M5NocKsP-36" vertex="1">
          <mxGeometry y="50" width="110" height="70" as="geometry" />
        </mxCell>
        <mxCell id="Q9FifGHWBsW8M5NocKsP-38" value="Orders" style="shape=rhombus;perimeter=rhombusPerimeter;whiteSpace=wrap;html=1;align=center;" parent="1" vertex="1">
          <mxGeometry x="170" y="280" width="120" height="60" as="geometry" />
        </mxCell>
        <mxCell id="Q9FifGHWBsW8M5NocKsP-39" value="" style="endArrow=none;html=1;rounded=0;exitX=1;exitY=0;exitDx=0;exitDy=0;entryX=0;entryY=0.5;entryDx=0;entryDy=0;" parent="1" source="Q9FifGHWBsW8M5NocKsP-37" target="Q9FifGHWBsW8M5NocKsP-38" edge="1">
          <mxGeometry relative="1" as="geometry">
            <mxPoint x="340" y="400" as="sourcePoint" />
            <mxPoint x="500" y="400" as="targetPoint" />
          </mxGeometry>
        </mxCell>
        <mxCell id="Q9FifGHWBsW8M5NocKsP-40" value="" style="shape=link;html=1;rounded=0;exitX=1;exitY=0.5;exitDx=0;exitDy=0;entryX=0.013;entryY=0.114;entryDx=0;entryDy=0;entryPerimeter=0;" parent="1" source="Q9FifGHWBsW8M5NocKsP-38" target="Q9FifGHWBsW8M5NocKsP-3" edge="1">
          <mxGeometry relative="1" as="geometry">
            <mxPoint x="340" y="400" as="sourcePoint" />
            <mxPoint x="500" y="400" as="targetPoint" />
          </mxGeometry>
        </mxCell>
        <mxCell id="Q9FifGHWBsW8M5NocKsP-41" value="N" style="resizable=0;html=1;whiteSpace=wrap;align=right;verticalAlign=bottom;" parent="Q9FifGHWBsW8M5NocKsP-40" connectable="0" vertex="1">
          <mxGeometry x="1" relative="1" as="geometry" />
        </mxCell>
        <mxCell id="Q9FifGHWBsW8M5NocKsP-47" value="Costs" style="shape=rhombus;perimeter=rhombusPerimeter;whiteSpace=wrap;html=1;align=center;" parent="1" vertex="1">
          <mxGeometry x="650" y="260" width="120" height="60" as="geometry" />
        </mxCell>
        <mxCell id="Q9FifGHWBsW8M5NocKsP-58" value="" style="shape=link;html=1;rounded=0;exitX=1;exitY=0.191;exitDx=0;exitDy=0;exitPerimeter=0;entryX=0;entryY=0.5;entryDx=0;entryDy=0;" parent="1" source="Q9FifGHWBsW8M5NocKsP-16" target="Q9FifGHWBsW8M5NocKsP-47" edge="1">
          <mxGeometry relative="1" as="geometry">
            <mxPoint x="340" y="490" as="sourcePoint" />
            <mxPoint x="500" y="490" as="targetPoint" />
          </mxGeometry>
        </mxCell>
        <mxCell id="Q9FifGHWBsW8M5NocKsP-59" value="1" style="resizable=0;html=1;whiteSpace=wrap;align=right;verticalAlign=bottom;" parent="Q9FifGHWBsW8M5NocKsP-58" connectable="0" vertex="1">
          <mxGeometry x="1" relative="1" as="geometry" />
        </mxCell>
        <mxCell id="WgrpGjysJXIXd2dVyWAo-1" value="Paint_Job" style="swimlane;childLayout=stackLayout;horizontal=1;startSize=50;horizontalStack=0;rounded=1;fontSize=14;fontStyle=0;strokeWidth=2;resizeParent=0;resizeLast=1;shadow=0;dashed=0;align=center;arcSize=4;whiteSpace=wrap;html=1;" parent="1" vertex="1">
          <mxGeometry x="365" y="780" width="90" height="100" as="geometry" />
        </mxCell>
        <mxCell id="WgrpGjysJXIXd2dVyWAo-2" value="&lt;div&gt;color&lt;/div&gt;&lt;div&gt;volume&lt;/div&gt;&lt;div&gt;labor&lt;br&gt;&lt;/div&gt;" style="align=left;strokeColor=none;fillColor=none;spacingLeft=4;fontSize=12;verticalAlign=top;resizable=0;rotatable=0;part=1;html=1;" parent="WgrpGjysJXIXd2dVyWAo-1" vertex="1">
          <mxGeometry y="50" width="90" height="50" as="geometry" />
        </mxCell>
        <mxCell id="WgrpGjysJXIXd2dVyWAo-4" value="Cut_Job" style="swimlane;childLayout=stackLayout;horizontal=1;startSize=50;horizontalStack=0;rounded=1;fontSize=14;fontStyle=0;strokeWidth=2;resizeParent=0;resizeLast=1;shadow=0;dashed=0;align=center;arcSize=4;whiteSpace=wrap;html=1;" parent="1" vertex="1">
          <mxGeometry x="480" y="780" width="90" height="120" as="geometry" />
        </mxCell>
        <mxCell id="WgrpGjysJXIXd2dVyWAo-5" value="&lt;div&gt;machine_type&lt;/div&gt;&lt;div&gt;time&lt;/div&gt;&lt;div&gt;material&lt;/div&gt;&lt;div&gt;labor&lt;br&gt;&lt;/div&gt;" style="align=left;strokeColor=none;fillColor=none;spacingLeft=4;fontSize=12;verticalAlign=top;resizable=0;rotatable=0;part=1;html=1;" parent="WgrpGjysJXIXd2dVyWAo-4" vertex="1">
          <mxGeometry y="50" width="90" height="70" as="geometry" />
        </mxCell>
        <mxCell id="WgrpGjysJXIXd2dVyWAo-6" value="Fit_Job" style="swimlane;childLayout=stackLayout;horizontal=1;startSize=50;horizontalStack=0;rounded=1;fontSize=14;fontStyle=0;strokeWidth=2;resizeParent=0;resizeLast=1;shadow=0;dashed=0;align=center;arcSize=4;whiteSpace=wrap;html=1;" parent="1" vertex="1">
          <mxGeometry x="250" y="780" width="90" height="100" as="geometry" />
        </mxCell>
        <mxCell id="WgrpGjysJXIXd2dVyWAo-7" value="labor" style="align=left;strokeColor=none;fillColor=none;spacingLeft=4;fontSize=12;verticalAlign=top;resizable=0;rotatable=0;part=1;html=1;" parent="WgrpGjysJXIXd2dVyWAo-6" vertex="1">
          <mxGeometry y="50" width="90" height="50" as="geometry" />
        </mxCell>
        <mxCell id="WgrpGjysJXIXd2dVyWAo-12" value="" style="edgeStyle=elbowEdgeStyle;elbow=vertical;endArrow=classic;html=1;curved=0;rounded=0;endSize=8;startSize=8;exitX=0.5;exitY=0;exitDx=0;exitDy=0;" parent="1" source="WgrpGjysJXIXd2dVyWAo-6" edge="1">
          <mxGeometry width="50" height="50" relative="1" as="geometry">
            <mxPoint x="410" y="690" as="sourcePoint" />
            <mxPoint x="630" y="750" as="targetPoint" />
          </mxGeometry>
        </mxCell>
        <mxCell id="WgrpGjysJXIXd2dVyWAo-15" value="Total" style="edgeLabel;html=1;align=center;verticalAlign=middle;resizable=0;points=[];" parent="WgrpGjysJXIXd2dVyWAo-12" vertex="1" connectable="0">
          <mxGeometry x="0.2" y="-1" relative="1" as="geometry">
            <mxPoint as="offset" />
          </mxGeometry>
        </mxCell>
        <mxCell id="WgrpGjysJXIXd2dVyWAo-13" value="" style="edgeStyle=elbowEdgeStyle;elbow=vertical;endArrow=classic;html=1;curved=0;rounded=0;endSize=8;startSize=8;exitX=0.5;exitY=0;exitDx=0;exitDy=0;" parent="1" source="WgrpGjysJXIXd2dVyWAo-4" edge="1">
          <mxGeometry width="50" height="50" relative="1" as="geometry">
            <mxPoint x="410" y="690" as="sourcePoint" />
            <mxPoint x="630" y="750" as="targetPoint" />
          </mxGeometry>
        </mxCell>
        <mxCell id="WgrpGjysJXIXd2dVyWAo-14" value="" style="endArrow=classic;html=1;rounded=0;exitX=0.5;exitY=0;exitDx=0;exitDy=0;entryX=0;entryY=0.5;entryDx=0;entryDy=0;" parent="1" source="WgrpGjysJXIXd2dVyWAo-1" target="JxGnZnn04dKT_V_FU_B4-5" edge="1">
          <mxGeometry width="50" height="50" relative="1" as="geometry">
            <mxPoint x="410" y="690" as="sourcePoint" />
            <mxPoint x="460" y="640" as="targetPoint" />
          </mxGeometry>
        </mxCell>
        <mxCell id="JxGnZnn04dKT_V_FU_B4-5" value="Job" style="swimlane;childLayout=stackLayout;horizontal=1;startSize=50;horizontalStack=0;rounded=1;fontSize=14;fontStyle=0;strokeWidth=2;resizeParent=0;resizeLast=1;shadow=0;dashed=0;align=center;arcSize=4;whiteSpace=wrap;html=1;" vertex="1" parent="1">
          <mxGeometry x="640" y="690" width="160" height="120" as="geometry" />
        </mxCell>
        <mxCell id="JxGnZnn04dKT_V_FU_B4-6" value="&lt;div&gt;&lt;u&gt;job_num&lt;br&gt;&lt;/u&gt;&lt;/div&gt;&lt;div&gt;job_date_commence&lt;u&gt;&lt;br&gt;&lt;/u&gt;&lt;div&gt;job_date_end&lt;/div&gt;&lt;/div&gt;" style="align=left;strokeColor=none;fillColor=none;spacingLeft=4;fontSize=12;verticalAlign=top;resizable=0;rotatable=0;part=1;html=1;" vertex="1" parent="JxGnZnn04dKT_V_FU_B4-5">
          <mxGeometry y="50" width="160" height="70" as="geometry" />
        </mxCell>
        <mxCell id="JxGnZnn04dKT_V_FU_B4-7" value="Begins" style="shape=rhombus;perimeter=rhombusPerimeter;whiteSpace=wrap;html=1;align=center;" vertex="1" parent="1">
          <mxGeometry x="640" y="590" width="120" height="60" as="geometry" />
        </mxCell>
        <mxCell id="JxGnZnn04dKT_V_FU_B4-10" value="" style="shape=link;html=1;rounded=0;exitX=1;exitY=0;exitDx=0;exitDy=0;entryX=0.442;entryY=0.05;entryDx=0;entryDy=0;entryPerimeter=0;" edge="1" parent="1" source="Q9FifGHWBsW8M5NocKsP-3" target="JxGnZnn04dKT_V_FU_B4-7">
          <mxGeometry relative="1" as="geometry">
            <mxPoint x="340" y="550" as="sourcePoint" />
            <mxPoint x="500" y="550" as="targetPoint" />
          </mxGeometry>
        </mxCell>
        <mxCell id="JxGnZnn04dKT_V_FU_B4-11" value="1" style="resizable=0;html=1;whiteSpace=wrap;align=right;verticalAlign=bottom;" connectable="0" vertex="1" parent="JxGnZnn04dKT_V_FU_B4-10">
          <mxGeometry x="1" relative="1" as="geometry" />
        </mxCell>
        <mxCell id="JxGnZnn04dKT_V_FU_B4-12" value="" style="shape=link;html=1;rounded=0;exitX=0.5;exitY=1;exitDx=0;exitDy=0;entryX=0.5;entryY=0;entryDx=0;entryDy=0;" edge="1" parent="1" source="Q9FifGHWBsW8M5NocKsP-47" target="Q9FifGHWBsW8M5NocKsP-55">
          <mxGeometry relative="1" as="geometry">
            <mxPoint x="710" y="320" as="sourcePoint" />
            <mxPoint x="710" y="410" as="targetPoint" />
          </mxGeometry>
        </mxCell>
        <mxCell id="Q9FifGHWBsW8M5NocKsP-55" value="Account" style="swimlane;childLayout=stackLayout;horizontal=1;startSize=50;horizontalStack=0;rounded=1;fontSize=14;fontStyle=0;strokeWidth=2;resizeParent=0;resizeLast=1;shadow=0;dashed=0;align=center;arcSize=4;whiteSpace=wrap;html=1;" parent="1" vertex="1">
          <mxGeometry x="630" y="380" width="160" height="120" as="geometry" />
        </mxCell>
        <mxCell id="Q9FifGHWBsW8M5NocKsP-56" value="&lt;div&gt;&lt;u&gt;type&lt;/u&gt;&lt;/div&gt;&lt;div&gt;&lt;u&gt;acct_id&lt;br&gt;&lt;/u&gt;&lt;/div&gt;" style="align=left;strokeColor=none;fillColor=none;spacingLeft=4;fontSize=12;verticalAlign=top;resizable=0;rotatable=0;part=1;html=1;" parent="Q9FifGHWBsW8M5NocKsP-55" vertex="1">
          <mxGeometry y="50" width="160" height="70" as="geometry" />
        </mxCell>
        <mxCell id="JxGnZnn04dKT_V_FU_B4-14" value="" style="shape=link;html=1;rounded=0;exitX=0.5;exitY=1;exitDx=0;exitDy=0;entryX=0.406;entryY=-0.017;entryDx=0;entryDy=0;entryPerimeter=0;" edge="1" parent="1" source="JxGnZnn04dKT_V_FU_B4-7" target="JxGnZnn04dKT_V_FU_B4-5">
          <mxGeometry relative="1" as="geometry">
            <mxPoint x="340" y="550" as="sourcePoint" />
            <mxPoint x="500" y="550" as="targetPoint" />
          </mxGeometry>
        </mxCell>
        <mxCell id="JxGnZnn04dKT_V_FU_B4-15" value="1" style="resizable=0;html=1;whiteSpace=wrap;align=right;verticalAlign=bottom;" connectable="0" vertex="1" parent="JxGnZnn04dKT_V_FU_B4-14">
          <mxGeometry x="1" relative="1" as="geometry" />
        </mxCell>
        <mxCell id="JxGnZnn04dKT_V_FU_B4-16" value="" style="endArrow=none;html=1;rounded=0;dashed=1;dashPattern=1 2;exitX=1;exitY=0;exitDx=0;exitDy=0;entryX=0;entryY=0.5;entryDx=0;entryDy=0;" edge="1" parent="1" source="Q9FifGHWBsW8M5NocKsP-7" target="JxGnZnn04dKT_V_FU_B4-7">
          <mxGeometry relative="1" as="geometry">
            <mxPoint x="340" y="490" as="sourcePoint" />
            <mxPoint x="500" y="490" as="targetPoint" />
          </mxGeometry>
        </mxCell>
        <mxCell id="JxGnZnn04dKT_V_FU_B4-17" value="1" style="resizable=0;html=1;whiteSpace=wrap;align=right;verticalAlign=bottom;" connectable="0" vertex="1" parent="JxGnZnn04dKT_V_FU_B4-16">
          <mxGeometry x="1" relative="1" as="geometry" />
        </mxCell>
        <mxCell id="JxGnZnn04dKT_V_FU_B4-18" value="" style="shape=link;html=1;rounded=0;entryX=1;entryY=0.5;entryDx=0;entryDy=0;exitX=1;exitY=0;exitDx=0;exitDy=0;" edge="1" parent="1" source="JxGnZnn04dKT_V_FU_B4-5" target="Q9FifGHWBsW8M5NocKsP-47">
          <mxGeometry relative="1" as="geometry">
            <mxPoint x="340" y="490" as="sourcePoint" />
            <mxPoint x="500" y="490" as="targetPoint" />
          </mxGeometry>
        </mxCell>
        <mxCell id="JxGnZnn04dKT_V_FU_B4-19" value="1" style="resizable=0;html=1;whiteSpace=wrap;align=right;verticalAlign=bottom;" connectable="0" vertex="1" parent="JxGnZnn04dKT_V_FU_B4-18">
          <mxGeometry x="1" relative="1" as="geometry" />
        </mxCell>
      </root>
    </mxGraphModel>
  </diagram>
</mxfile>
